<?xml version="1.0" standalone="no"?>
<!DOCTYPE svg PUBLIC "-//W3C//DTD SVG 20010904//EN"
 "http://www.w3.org/TR/2001/REC-SVG-20010904/DTD/svg10.dtd">
<svg version="1.0" xmlns="http://www.w3.org/2000/svg"
 width="100.000000pt" height="100.000000pt" viewBox="0 0 100.000000 100.000000"
 preserveAspectRatio="xMidYMid meet">

<g transform="translate(0.000000,100.000000) scale(0.100000,-0.100000)"
fill="#000000" stroke="none">
<path d="M243 771 c-13 -11 -23 -24 -23 -30 0 -10 60 -40 135 -67 37 -14 40
-14 64 10 28 29 26 35 -15 42 -16 3 -53 18 -81 35 -29 16 -54 29 -55 29 -2 -1
-13 -9 -25 -19z"/>
<path d="M275 510 c3 -5 8 -10 11 -10 2 0 4 5 4 10 0 6 -5 10 -11 10 -5 0 -7
-4 -4 -10z"/>
<path d="M505 495 c-23 -11 -26 -14 -10 -15 11 0 38 -3 60 -6 l40 -6 -25 21
c-29 24 -26 24 -65 6z"/>
<path d="M740 474 c0 -8 5 -12 10 -9 6 3 10 10 10 16 0 5 -4 9 -10 9 -5 0 -10
-7 -10 -16z"/>
<path d="M500 465 c0 -10 29 -24 34 -17 3 6 -3 12 -14 15 -11 3 -20 4 -20 2z"/>
<path d="M697 393 c-5 -26 -4 -26 9 -8 16 22 18 35 5 35 -5 0 -11 -12 -14 -27z"/>
<path d="M280 389 c0 -5 5 -7 10 -4 6 3 10 8 10 11 0 2 -4 4 -10 4 -5 0 -10
-5 -10 -11z"/>
</g>
</svg>
